<?xml version="1.0" standalone="no"?>
<!DOCTYPE svg PUBLIC "-//W3C//DTD SVG 20010904//EN"
 "http://www.w3.org/TR/2001/REC-SVG-20010904/DTD/svg10.dtd">
<svg version="1.0" xmlns="http://www.w3.org/2000/svg"
 width="1980.000000pt" height="1980.000000pt" viewBox="0 0 1980.000000 1980.000000"
 preserveAspectRatio="xMidYMid meet">
<metadata>
Created by potrace 1.14, written by Peter Selinger 2001-2017
</metadata>
<g transform="translate(0.000000,1980.000000) scale(0.100000,-0.100000)"
fill="#000000" stroke="none">
<path d="M9550 18974 c-944 -44 -1754 -196 -2615 -491 -860 -295 -1691 -735
-2462 -1305 -525 -388 -1104 -936 -1538 -1455 -1083 -1297 -1769 -2828 -2019
-4508 -97 -647 -119 -1485 -56 -2155 178 -1906 927 -3657 2191 -5120 503 -582
1154 -1156 1799 -1587 356 -237 598 -377 1015 -586 284 -142 395 -191 700
-312 706 -280 1378 -452 2175 -559 390 -52 669 -69 1170 -69 424 0 600 7 910
39 1648 168 3203 776 4525 1769 1048 788 1901 1774 2534 2930 933 1704 1287
3695 1005 5649 -257 1781 -1041 3441 -2260 4786 -149 164 -514 527 -678 674
-1080 967 -2392 1666 -3791 2021 -539 137 -1018 215 -1585 260 -188 15 -845
27 -1020 19z m2320 -5247 c877 -3 886 -3 950 -24 36 -12 106 -29 155 -38 50
-10 99 -21 110 -26 11 -5 55 -20 97 -34 42 -13 87 -30 100 -38 13 -9 43 -21
68 -28 25 -7 56 -22 70 -35 14 -12 41 -30 60 -39 19 -10 43 -28 53 -41 10 -13
24 -24 32 -24 14 0 225 -207 225 -221 0 -5 12 -28 27 -52 44 -66 103 -190 103
-213 0 -11 11 -52 24 -90 13 -38 27 -87 31 -109 9 -61 27 -117 45 -145 35 -52
40 -238 40 -1497 0 -1290 -2 -1344 -46 -1388 -12 -12 -27 -39 -32 -58 -12 -43
-84 -117 -141 -146 -22 -12 -42 -25 -45 -30 -3 -5 -41 -17 -83 -26 -43 -9 -87
-23 -99 -30 -25 -16 -1424 -24 -4406 -24 l-1796 -1 -32 -27 -32 -26 4 -416 c3
-365 5 -420 20 -451 9 -19 24 -57 32 -83 9 -26 23 -58 31 -70 8 -12 21 -41 29
-65 17 -46 68 -126 100 -156 12 -10 38 -29 59 -42 20 -13 37 -28 37 -33 0 -5
15 -14 33 -22 17 -7 35 -18 40 -25 13 -23 171 -92 248 -109 190 -43 216 -45
568 -55 197 -5 1416 -10 2725 -10 l2370 0 39 -27 c71 -49 69 -34 67 -524 -1
-498 -1 -502 -67 -516 -21 -4 -1327 -8 -2903 -8 -2977 0 -2992 0 -3135 40 -27
8 -84 19 -125 25 -41 6 -109 23 -150 36 -41 14 -102 33 -135 43 -33 9 -70 22
-83 29 -12 7 -49 22 -82 32 -33 10 -72 28 -87 38 -60 40 -132 80 -168 92 -49
16 -224 147 -278 208 -7 8 -22 25 -35 39 -12 13 -30 35 -38 49 -9 13 -22 24
-30 24 -7 0 -23 19 -35 43 -12 23 -31 53 -41 67 -11 14 -26 39 -34 55 -7 17
-18 37 -23 45 -15 23 -101 205 -101 213 0 3 -11 31 -25 61 -14 30 -29 86 -35
125 -5 40 -19 97 -31 129 -46 126 -65 217 -91 447 -5 44 -11 724 -14 1510 l-5
1430 -31 120 c-34 136 -69 230 -110 294 -15 25 -28 52 -28 61 0 15 -15 33 -52
67 -7 6 -32 31 -54 55 -23 24 -70 65 -105 91 -35 26 -79 59 -98 74 -70 56
-163 92 -361 139 -78 18 -279 24 -1020 27 l-535 2 -48 28 c-27 16 -51 36 -54
45 -4 9 -20 39 -37 66 -46 76 -55 153 -55 476 -1 337 6 377 79 450 72 72 45
70 854 70 729 -1 899 -8 981 -40 17 -7 84 -25 150 -41 297 -70 319 -77 475
-158 30 -15 76 -34 103 -42 26 -7 47 -16 47 -20 0 -3 27 -18 60 -33 32 -15 62
-31 66 -37 3 -5 28 -28 56 -49 46 -37 55 -40 113 -40 60 0 64 1 96 38 19 22
41 46 49 56 34 38 92 86 106 86 8 0 31 15 51 33 21 18 54 40 73 50 19 10 62
33 95 52 63 36 72 41 145 75 25 11 57 27 71 35 14 8 59 22 99 30 40 8 87 22
104 30 17 8 73 24 123 34 51 11 102 25 112 31 25 13 133 36 241 50 47 6 100
16 119 22 74 23 697 26 3991 15z m-3935 -7821 c56 -15 185 -74 185 -85 0 -4
16 -15 35 -24 19 -9 52 -32 73 -52 22 -19 45 -35 51 -35 6 0 11 -6 11 -13 0
-7 20 -51 44 -98 61 -119 90 -238 83 -348 -5 -98 -39 -209 -81 -263 -14 -19
-26 -40 -26 -47 0 -45 -165 -211 -210 -211 -5 0 -40 -15 -77 -32 l-68 -33
-160 0 c-160 1 -160 1 -225 33 -36 18 -73 32 -83 32 -23 0 -149 129 -198 202
-21 32 -52 97 -69 144 -27 77 -31 101 -31 204 -1 106 2 124 31 210 18 52 36
100 40 105 18 23 50 87 50 100 0 7 8 16 19 20 10 3 30 19 45 35 14 17 30 30
35 30 5 0 28 16 51 35 23 19 54 38 69 41 14 4 44 16 66 27 22 11 51 23 65 28
42 12 222 10 275 -5z m4635 -15 c25 -13 66 -30 93 -38 26 -7 47 -18 47 -23 0
-5 18 -21 39 -35 44 -27 131 -108 131 -122 0 -4 18 -30 40 -58 22 -27 40 -56
40 -63 0 -7 12 -36 28 -65 26 -50 27 -57 27 -202 l-1 -150 -37 -75 c-21 -41
-67 -113 -102 -160 -101 -135 -131 -161 -216 -184 -35 -10 -75 -25 -89 -34
-21 -14 -52 -17 -175 -17 -149 0 -151 0 -218 33 -37 17 -72 32 -78 32 -27 0
-178 136 -212 190 -11 19 -29 41 -39 48 -10 7 -18 19 -18 26 0 7 -13 43 -30
79 -29 65 -30 71 -30 217 0 114 3 156 14 173 8 12 22 45 31 72 9 28 27 61 40
75 12 14 28 41 35 61 8 23 25 43 44 53 38 21 126 81 147 101 9 8 20 15 25 15
6 0 32 14 58 30 66 42 103 49 241 47 105 -2 126 -5 165 -26z"/>
<path d="M8315 12509 c-38 -5 -83 -13 -100 -18 -16 -5 -64 -15 -105 -22 -41
-6 -98 -22 -125 -34 -28 -12 -73 -29 -101 -39 -28 -9 -68 -25 -90 -36 -21 -11
-44 -20 -52 -20 -39 0 -190 -136 -212 -190 -8 -19 -27 -55 -42 -79 -15 -25
-28 -50 -28 -57 0 -7 -4 -14 -8 -16 -21 -8 -83 -155 -92 -217 -5 -36 -10 -296
-10 -576 0 -456 2 -513 16 -534 38 -54 -120 -51 2633 -51 1858 0 2564 3 2603
11 41 9 63 21 94 53 38 38 42 47 52 121 8 51 12 255 11 558 0 263 3 497 6 520
5 31 1 59 -14 102 -12 33 -21 70 -21 83 0 41 -21 110 -41 131 -10 11 -19 27
-19 35 0 8 -25 44 -55 80 -44 51 -72 73 -134 104 -43 22 -102 45 -132 52 -30
7 -68 19 -86 27 -27 11 -341 13 -1784 13 -964 0 -1829 2 -1923 4 -94 3 -202 1
-241 -5z"/>
</g>
</svg>
