<svg width="139" height="26" viewBox="0 0 139 26" fill="none" xmlns="http://www.w3.org/2000/svg">
<path fill-rule="evenodd" clip-rule="evenodd" d="M105.775 6.44993C105.799 6.3593 105.799 6.24775 105.775 6.15712L104.271 1.12355C104.203 0.900457 103.998 0.742432 103.748 0.742432C103.587 0.742432 103.451 0.809825 103.337 0.900457L99.6718 4.69538C99.4667 4.9208 99.4667 5.25777 99.6954 5.45995C99.7637 5.52734 99.8533 5.57149 99.9453 5.59473L101.152 5.88755C100.332 7.93258 99.396 9.93113 98.3258 11.8414L97.7789 12.8755C96.3409 15.3249 94.679 17.6395 92.8544 19.8193C92.7625 19.9541 92.6705 20.0657 92.5574 20.2004L92.5338 20.2237C91.8502 20.9209 94.0142 22.4035 94.448 21.9991C95.0184 21.3484 95.5653 20.6745 96.0887 19.9773L96.1334 19.9332C99.3017 15.864 101.831 11.3046 103.724 6.51732L105.091 6.85429C105.41 6.92168 105.707 6.74274 105.775 6.44993ZM22.0067 8.76537C21.8017 7.82186 21.0261 7.08054 20.069 6.89927C19.5905 6.74125 19.0672 6.67386 18.5415 6.6971H10.5643C9.78869 6.67386 9.0367 6.76449 8.28471 6.96667C7.64588 7.10145 7.05419 7.39427 6.55207 7.81954L6.27862 8.08911C5.36633 7.45933 4.29611 7.10145 3.2023 7.10145H0.580951C0.283928 7.07822 0.010477 7.30363 0.010477 7.59644C-0.00589797 7.61259 0.000476535 7.63882 0.00589643 7.66113C0.00827896 7.67093 0.010477 7.67998 0.010477 7.68708V8.67473C0.010477 9.48345 0.512589 9.50669 0.557378 9.50669H2.95243C4.25132 9.50669 4.86658 10.0458 5.11882 10.6291C5.25554 10.8755 5.3239 11.1241 5.34748 11.3472V15.8858C5.34748 18.8511 6.0311 20.3128 8.28707 20.8961C9.03906 21.0983 9.81462 21.1889 10.5902 21.1657H21.144C21.349 21.1889 21.5306 21.0309 21.5541 20.8287C21.5777 20.8055 21.5777 20.7613 21.5541 20.7381V19.1881C21.5989 18.9859 21.441 18.7837 21.2359 18.7605H10.9061C8.76325 18.7605 8.30829 18.1772 8.30829 16.6922V15.6581H20.8446C21.21 15.7022 21.573 15.5907 21.87 15.3885C22.1199 15.0957 22.2354 14.7145 22.1883 14.3334V10.1318C22.2118 9.66007 22.1435 9.18832 22.0067 8.76072V8.76537ZM19.3406 12.63C19.3406 12.8763 19.2039 13.0111 18.9304 13.0111H8.30829V11.4169C8.28471 11.238 8.28471 11.0567 8.30829 10.8778C8.37665 10.4967 8.53695 10.1365 8.8104 9.82274C9.42566 9.44162 10.1777 9.26036 10.9084 9.32775V9.35099H17.8838C18.2939 9.30684 18.7041 9.39514 19.0224 9.6438C19.2722 9.93661 19.3642 10.2945 19.3406 10.6779V12.63ZM26.0631 17.2825V15.7767L26.0655 15.786C26.0655 15.4931 26.089 15.2027 26.1574 14.9098C26.181 14.7077 26.2941 14.5055 26.4309 14.3475C26.5912 14.1918 26.7962 14.0779 27.0013 14.0337C27.296 13.9663 27.6166 13.9199 27.9348 13.9431H34.6367C34.7263 13.9199 34.7947 13.8757 34.8182 13.7851C34.863 13.7386 34.863 13.6944 34.863 13.6271V12.1444C34.8395 11.9864 34.7027 11.8958 34.566 11.919H27.6826C27.6354 11.8958 27.5671 11.8958 27.5223 11.8958C26.907 11.8958 26.3153 11.9864 25.7449 12.1212C25.6317 12.1421 25.5162 12.1653 25.4031 12.2327C25.1532 12.3001 24.9245 12.4117 24.7194 12.5697C24.6275 12.6162 24.5591 12.6603 24.4908 12.7277C24.1725 12.9973 23.9439 13.3784 23.8307 13.7828C23.6704 14.2777 23.6021 14.8169 23.6256 15.3328V17.7589C23.6021 18.2772 23.6704 18.8163 23.8307 19.3322C23.9439 19.7366 24.1725 20.0945 24.4908 20.3873C24.8562 20.6778 25.2899 20.8799 25.7449 20.9706C26.3837 21.1054 27.0225 21.1728 27.6826 21.1495H34.566C34.5896 21.1728 34.6108 21.1728 34.6344 21.1495C34.7947 21.1495 34.8866 20.9915 34.863 20.8567V19.4415C34.8866 19.4182 34.8866 19.3973 34.863 19.3741C34.8395 19.216 34.7027 19.1254 34.566 19.1486H27.9325C27.6142 19.1486 27.3172 19.1254 26.999 19.058C26.5652 18.9674 26.2234 18.6095 26.155 18.1819C26.0867 17.8891 26.0631 17.5754 26.0631 17.2825ZM48.4721 12.7197C48.7903 12.9893 49.0426 13.3704 49.1557 13.7747V13.7771C49.2689 14.2256 49.3372 14.6973 49.3608 15.1691V17.7532C49.3608 18.2924 49.2924 18.8106 49.1557 19.3265C49.019 19.7309 48.7903 20.0888 48.4721 20.3816C48.1067 20.6721 47.6729 20.8742 47.218 20.9649C46.5791 21.0997 45.9427 21.1671 45.3038 21.1671H40.4477C39.8089 21.1671 39.1488 21.0997 38.51 20.9649C38.0527 20.8766 37.6213 20.6744 37.2559 20.3816C36.9377 20.0911 36.709 19.7309 36.5958 19.3265C36.4355 18.8083 36.3672 18.2924 36.3908 17.7532V15.3271C36.3695 14.8786 36.4143 14.4068 36.5511 13.9792C36.5511 13.9118 36.5723 13.8444 36.5958 13.7771C36.6642 13.5075 36.8009 13.2379 37.006 13.0125C37.0508 12.8986 37.1427 12.8103 37.2559 12.7197C37.6213 12.406 38.055 12.2038 38.51 12.1131C39.1488 11.9551 39.7877 11.8877 40.4477 11.911H45.4406C46.0322 11.911 46.6475 11.9784 47.218 12.1131C47.6965 12.2038 48.1067 12.406 48.4721 12.7197ZM46.921 17.3256V15.7291L46.9233 15.7315C46.9233 15.5967 46.9233 15.4386 46.8997 15.3039C46.8997 15.155 46.8804 15.0253 46.8581 14.8761L46.855 14.8553C46.8314 14.7647 46.8078 14.6973 46.763 14.6299C46.7159 14.4951 46.6263 14.3813 46.5344 14.2697C46.3741 14.1349 46.1925 14.0211 45.9639 13.9769C45.6669 13.9095 45.3486 13.8863 45.0516 13.8863H40.6976C40.377 13.8863 40.0823 13.9095 39.7853 13.9769C39.559 14.0234 39.3751 14.1349 39.1936 14.2697C39.1936 14.2799 39.188 14.2851 39.1823 14.2905C39.1763 14.2961 39.1701 14.3019 39.1701 14.3139C39.0333 14.4719 38.965 14.6741 38.9202 14.853C38.8518 15.1458 38.8282 15.4363 38.8282 15.7291V17.3256C38.8282 17.6417 38.8518 17.9322 38.9202 18.225C38.965 18.4272 39.0569 18.6294 39.1936 18.7874C39.3751 18.9431 39.5567 19.057 39.7853 19.1011C40.0823 19.1685 40.3794 19.1917 40.6976 19.1917H45.0516C45.3486 19.1917 45.6669 19.1685 45.9639 19.1011C46.1925 19.057 46.3741 18.9454 46.5344 18.7874C46.6923 18.6294 46.8078 18.4504 46.8526 18.225L46.8568 18.1979C46.9002 17.9141 46.9438 17.6297 46.921 17.3256ZM86.2867 15.3251V20.7863C86.3103 20.9652 86.1948 21.1233 86.0133 21.1674H84.2358C84.0543 21.1907 83.894 21.0559 83.8705 20.8746C83.8469 20.8514 83.8469 20.8072 83.8705 20.784V15.9084C83.8705 15.5947 83.8469 15.3019 83.8021 15.0091C83.7573 14.8069 83.6654 14.6047 83.5286 14.4467C83.3919 14.2887 83.2104 14.1771 83.0053 14.133C82.7083 14.0656 82.4136 14.0423 82.093 14.0423H79.0851V20.784C79.0851 21.0303 78.9719 21.1651 78.6985 21.1651H77.0342C76.8527 21.1883 76.6688 21.0536 76.6476 20.8723V14.0423H73.7292C73.4322 14.0423 73.1375 14.0656 72.8405 14.133C72.6118 14.1771 72.4067 14.291 72.2488 14.4467C72.1121 14.6047 71.9989 14.8069 71.9754 15.0091C71.907 15.3019 71.8834 15.5924 71.8834 15.9084V20.784C71.907 20.9629 71.7703 21.1209 71.61 21.1651H69.8325C69.5591 21.1651 69.4459 21.0303 69.4459 20.784V15.3228C69.4224 14.8069 69.4907 14.2678 69.651 13.7728C69.7642 13.3684 69.9928 12.9873 70.3111 12.7177C70.6765 12.404 71.0866 12.2018 71.5652 12.1112C72.204 11.9532 72.8405 11.8858 73.5029 11.909H82.3924C82.9841 11.909 83.5781 11.9764 84.1486 12.1112C84.6272 12.2018 85.0609 12.404 85.4239 12.7177C85.7422 12.9873 85.9708 13.3684 86.084 13.7728C86.2443 14.2678 86.3127 14.8069 86.2891 15.3228L86.2867 15.3251ZM93.9996 14.6807C93.9784 14.5343 93.8393 14.432 93.6908 14.4529H88.5448C88.5188 14.4483 88.4929 14.4483 88.467 14.4529C88.3185 14.4739 88.2124 14.611 88.236 14.7574V15.9705C88.2312 15.9983 88.2312 16.0216 88.236 16.0495C88.2572 16.1959 88.3963 16.2981 88.5448 16.2749H93.6908C93.7168 16.2795 93.7427 16.2795 93.7686 16.2749C93.9195 16.254 94.0232 16.1169 93.9996 15.9705V14.7574C94.0043 14.7318 94.0043 14.7063 93.9996 14.6807ZM123.554 13.7747C123.441 13.3704 123.189 12.9893 122.87 12.7197C122.505 12.406 122.074 12.2038 121.616 12.1131C120.977 11.9551 120.339 11.8877 119.678 11.911H114.891C114.252 11.8877 113.592 11.9551 112.953 12.1131C112.498 12.2038 112.064 12.4269 111.699 12.7197C111.381 13.0125 111.152 13.3704 111.039 13.7747C110.902 14.2906 110.81 14.8089 110.834 15.3248V24.5158C110.834 24.7621 110.97 24.876 111.22 24.876H112.908C112.932 24.8992 112.953 24.8992 113 24.876C113.182 24.8528 113.297 24.6971 113.274 24.5158V21.1671H119.678C120.339 21.1671 120.977 21.0997 121.616 20.9649C122.071 20.8742 122.505 20.6721 122.87 20.3816C123.189 20.0888 123.417 19.7309 123.554 19.3265C123.554 19.3149 123.56 19.3039 123.566 19.2928C123.572 19.2818 123.577 19.2708 123.577 19.2591C123.691 18.7641 123.759 18.2715 123.759 17.7532V15.3271C123.759 14.8112 123.691 14.272 123.554 13.7771V13.7747ZM113.274 17.73L113.297 15.7756C113.274 15.4936 113.317 15.2137 113.361 14.9319L113.366 14.8995C113.41 14.6973 113.502 14.4951 113.663 14.3371C113.823 14.1791 114.028 14.0675 114.233 14.0234C114.53 13.956 114.848 13.9118 115.145 13.9328H119.455C119.773 13.9095 120.07 13.956 120.388 14.0234C120.593 14.0675 120.798 14.1814 120.935 14.3371C121.095 14.4951 121.208 14.6973 121.253 14.8995C121.322 15.1923 121.345 15.4828 121.345 15.7756V17.2815C121.345 17.5743 121.322 17.888 121.253 18.1808C121.208 18.383 121.093 18.5852 120.935 18.7432C120.798 18.9013 120.593 19.0128 120.388 19.057C120.07 19.1243 119.773 19.1476 119.455 19.1476H113.278V17.7323L113.274 17.73ZM137.344 12.7204C137.686 12.99 137.915 13.3711 138.028 13.7755V13.7778C138.188 14.2728 138.256 14.812 138.233 15.3279V17.754C138.256 18.2932 138.188 18.8114 138.028 19.3273C137.915 19.7316 137.662 20.0895 137.344 20.3823C137.002 20.6728 136.569 20.875 136.114 20.9656C135.475 21.1004 134.815 21.1678 134.176 21.1678H127.771V24.5166C127.792 24.6978 127.656 24.8535 127.474 24.8768C127.45 24.9 127.427 24.9 127.382 24.8768H125.718C125.444 24.8768 125.308 24.7629 125.308 24.5166V15.3255V15.3254C125.308 15.2348 125.308 15.1233 125.331 15.0327C125.331 14.6074 125.4 14.2031 125.513 13.7755C125.649 13.3711 125.878 13.0133 126.196 12.7204C126.562 12.4276 126.972 12.2045 127.427 12.1139C128.066 11.9559 128.728 11.8885 129.388 11.9117H134.176C134.633 11.8908 135.112 11.935 135.567 12.0024C135.736 12.0219 135.908 12.0638 136.078 12.1052L136.114 12.1139C136.569 12.2045 137.002 12.4067 137.344 12.7204ZM135.428 18.7417C135.588 18.5836 135.68 18.3815 135.725 18.1793L135.729 18.1816L135.798 17.7772C135.821 17.6193 135.821 17.4405 135.821 17.2826V17.2823V15.7764C135.821 15.4836 135.798 15.1931 135.729 14.9003C135.706 14.6981 135.593 14.4959 135.432 14.3379C135.272 14.1822 135.067 14.0683 134.862 14.0241C134.565 13.9568 134.247 13.9103 133.95 13.9335H129.64C129.504 13.9335 129.367 13.9335 129.23 13.9568H129.207C129.098 13.9568 128.991 13.9769 128.883 13.9972C128.832 14.0069 128.78 14.0166 128.728 14.0241C128.568 14.0474 128.431 14.1148 128.294 14.2263C128.247 14.2472 128.179 14.2937 128.134 14.3379C127.997 14.4959 127.905 14.6981 127.861 14.9003C127.792 15.1931 127.769 15.4836 127.769 15.7764V19.146H133.945C134.242 19.146 134.56 19.1228 134.857 19.0554C135.062 19.0112 135.267 18.8997 135.428 18.7417ZM20.0245 23.9096C20.0245 24.651 19.4093 25.2575 18.6573 25.2575C17.9053 25.2575 17.29 24.651 17.29 23.9096C17.29 23.1683 17.9053 22.5618 18.6573 22.5618C19.4093 22.5618 20.0245 23.1683 20.0245 23.9096ZM8.99225 25.2575C9.74424 25.2575 10.3595 24.651 10.3595 23.9096C10.3595 23.1683 9.74424 22.5618 8.99225 22.5618C8.24026 22.5618 7.625 23.1683 7.625 23.9096C7.625 24.651 8.24026 25.2575 8.99225 25.2575ZM67.7558 20.7859V15.3248H67.7511C67.7747 14.8089 67.7063 14.2697 67.546 13.7747C67.4565 13.3704 67.2042 12.9893 66.886 12.7197C66.523 12.406 66.0892 12.2038 65.6107 12.1131C65.0402 11.9784 64.4461 11.911 63.8545 11.911H54.965C54.3261 11.8877 53.6661 11.9551 53.0272 12.1131C52.5699 12.2038 52.1385 12.406 51.7731 12.7197C51.4549 12.9893 51.2262 13.3704 51.1131 13.7747C50.9763 14.2697 50.8844 14.8089 50.908 15.3248V20.7859C50.908 21.0346 51.0447 21.1461 51.2946 21.1461H52.9824C53.006 21.1694 53.0508 21.1694 53.0744 21.1461C53.2559 21.1229 53.3714 20.9649 53.3478 20.7859V15.9104C53.3478 15.5943 53.3714 15.3039 53.4398 15.011C53.4869 14.8089 53.5765 14.6044 53.7368 14.4487C53.8971 14.293 54.1022 14.1791 54.3073 14.1349C54.6043 14.0675 54.9013 14.0443 55.2195 14.0443H58.1144V20.8742C58.1356 21.0555 58.3194 21.1903 58.501 21.1671H60.1652C60.4387 21.1671 60.5754 21.0323 60.5754 20.7859V14.0443H63.5834C63.8804 14.0443 64.175 14.0675 64.4721 14.1349C64.6772 14.1791 64.8822 14.2906 65.019 14.4487C65.1557 14.6067 65.2453 14.8089 65.2689 15.011C65.3136 15.3039 65.3372 15.5967 65.3372 15.9104V20.8766C65.3608 21.0555 65.5211 21.1903 65.7026 21.1461H67.3904C67.414 21.1694 67.4588 21.1694 67.4824 21.1461C67.6639 21.1229 67.7794 20.9649 67.7558 20.7859ZM109.468 21.0558C109.445 21.1232 109.355 21.1673 109.219 21.1673H107.052C106.892 21.1673 106.734 21.0767 106.666 20.9419L106.163 20.0216L105.572 18.9875L105.459 18.7621H98.3701C98.7803 18.1788 99.2353 17.5258 99.7138 16.8077H104.365L102.154 12.7641C102.587 11.9554 103.042 11.0793 103.476 10.1799C103.589 10.338 103.681 10.4937 103.773 10.6517L108.219 18.5832L108.995 19.9752L109.428 20.7606C109.497 20.8513 109.497 20.9628 109.473 21.0535L109.468 21.0558Z" fill="url(#paint0_linear_13_33713)"/>
<path fill-rule="evenodd" clip-rule="evenodd" d="M22.1813 14.3208V12.2548C21.7715 12.2082 21.3659 12.1652 20.9659 12.1229C20.4086 12.0639 19.8624 12.006 19.3313 11.9411V12.615C19.3313 12.8613 19.1946 12.9961 18.9211 12.9961H8.29901V11.4019C8.27543 11.223 8.27543 11.0417 8.29901 10.8628C7.84622 10.8284 7.4106 10.7936 6.98951 10.76L6.98947 10.76L6.98947 10.76L6.98946 10.76C6.32978 10.7074 5.70574 10.6576 5.10718 10.6165C5.2439 10.8628 5.31227 11.1091 5.33584 11.3345V15.8731C5.33584 18.8384 6.01947 20.3001 8.27543 20.8834C9.02742 21.0856 9.80298 21.1763 10.5785 21.153H21.13C21.3351 21.1763 21.5166 21.0182 21.5401 20.816C21.5637 20.7928 21.5637 20.7487 21.5401 20.7254V19.1754C21.5873 18.9732 21.427 18.771 21.2219 18.7478H10.8968C8.75397 18.7478 8.29901 18.1622 8.29901 16.6795V15.6454H20.8377C21.203 15.6895 21.5661 15.578 21.8631 15.3758C22.113 15.0853 22.2261 14.7019 22.1813 14.3208ZM10.3495 23.893C10.3495 24.6344 9.73423 25.2409 8.98224 25.2409C8.23025 25.2409 7.61499 24.6344 7.61499 23.893C7.61499 23.1517 8.23025 22.5452 8.98224 22.5452C9.73423 22.5452 10.3495 23.1517 10.3495 23.893ZM20.0155 23.893C20.0155 24.6344 19.4002 25.2409 18.6483 25.2409C17.8963 25.2409 17.281 24.6344 17.281 23.893C17.281 23.1517 17.8963 22.5452 18.6483 22.5452C19.4002 22.5452 20.0155 23.1517 20.0155 23.893ZM34.855 19.4218C34.878 19.3991 34.8785 19.3786 34.8565 19.3559C34.8306 19.2013 34.6954 19.113 34.5603 19.136H27.9268C27.6085 19.136 27.3115 19.1127 26.9933 19.0453C26.5595 18.9547 26.2177 18.5968 26.1493 18.1692C26.081 17.8764 26.0574 17.5627 26.0574 17.2699V15.764C26.0574 15.4712 26.081 15.1807 26.1493 14.8879C26.1729 14.6857 26.2861 14.4835 26.4228 14.3255C26.5831 14.1698 26.7882 14.0559 26.9933 14.0118C27.2879 13.9444 27.6085 13.8979 27.9268 13.9211H34.6287C34.7182 13.8979 34.7866 13.8538 34.8102 13.7631C31.1162 13.2914 27.7665 12.887 24.7114 12.55C24.6194 12.5965 24.5511 12.6407 24.4827 12.7081C24.1645 12.9776 23.9358 13.3588 23.8227 13.7631C23.6624 14.2581 23.594 14.7973 23.6176 15.3132V17.7393C23.594 18.2575 23.6624 18.7967 23.8227 19.3126C23.9358 19.717 24.1645 20.0748 24.4827 20.3676C24.8481 20.6581 25.2818 20.8603 25.7368 20.9509C26.3756 21.0857 27.0145 21.1531 27.6745 21.1299H34.558C34.5815 21.1531 34.6027 21.1531 34.6263 21.1299C34.7866 21.1299 34.8785 20.9719 34.855 20.8371V19.4218ZM49.3516 17.7362V15.6005C48.9851 15.5519 48.6221 15.5073 48.2633 15.4632L48.2632 15.4632C47.7982 15.406 47.3402 15.3497 46.8905 15.2868C46.9141 15.4216 46.9141 15.5796 46.9141 15.7144V17.3109C46.9368 17.6159 46.8937 17.897 46.8504 18.1795L46.8457 18.2102C46.8009 18.4357 46.6878 18.6146 46.5275 18.7726C46.3672 18.9283 46.1857 19.0422 45.957 19.0864C45.66 19.1538 45.3418 19.177 45.0447 19.177H40.6907C40.3701 19.177 40.0755 19.1538 39.7785 19.0864C39.5522 19.0422 39.3683 18.9307 39.1868 18.7726C39.05 18.6146 38.9581 18.4124 38.9133 18.2102C38.845 17.9174 38.8214 17.6246 38.8214 17.3109V15.7144C38.8214 15.4216 38.845 15.1311 38.9133 14.8383C38.9581 14.6593 39.0265 14.4571 39.1632 14.2991C38.2509 14.1876 37.3858 14.0737 36.5418 13.9622C36.4051 14.3898 36.358 14.8615 36.3815 15.31V17.7362C36.358 18.2753 36.4263 18.7935 36.5866 19.3095C36.6998 19.7138 36.9284 20.0717 37.2467 20.3645C37.6121 20.655 38.0458 20.8572 38.5008 20.9478C39.1396 21.0826 39.7997 21.15 40.4385 21.15H45.2946C45.9334 21.15 46.5699 21.0826 47.2088 20.9478C47.6661 20.8595 48.0975 20.6573 48.4629 20.3645C48.7811 20.074 49.0098 19.7138 49.1465 19.3095C49.2832 18.7912 49.3516 18.2753 49.3516 17.7362ZM50.9011 15.803C51.6979 15.9145 52.5182 16.0284 53.341 16.1399V20.7692C53.3645 20.9481 53.249 21.1061 53.0675 21.1294C53.0439 21.1526 52.9991 21.1526 52.9756 21.1294H51.2877C51.0378 21.1294 50.9011 21.0178 50.9011 20.7692V15.803ZM58.6852 16.8477L58.6847 16.8477L58.6823 16.8473C58.4919 16.8217 58.2998 16.7959 58.1052 16.7701V20.8579C58.1264 21.0391 58.3103 21.1739 58.4918 21.1507H60.1561C60.4296 21.1507 60.5663 21.0159 60.5663 20.7696V17.0839C59.936 17.016 59.3197 16.9331 58.6852 16.8477ZM65.3302 17.6458C66.1506 17.7573 66.9474 17.8479 67.7465 17.9153V20.7691C67.7701 20.948 67.6546 21.106 67.4731 21.1293C67.4495 21.1525 67.4047 21.1525 67.3811 21.1293H65.6933C65.5117 21.1734 65.3515 21.0386 65.3279 20.8597V17.6458H65.3302ZM69.4337 18.0946L69.4314 18.0944L69.4337 18.092V18.0946ZM69.4337 18.0946C70.2533 18.1852 71.0729 18.2734 71.8712 18.3407V20.7668C71.8948 20.9458 71.7581 21.1038 71.5978 21.148H69.8204C69.5469 21.148 69.4337 21.0132 69.4337 20.7668V18.0946ZM76.6355 18.7688L76.6379 18.7691V20.858C76.6591 21.0392 76.8429 21.174 77.0245 21.1508H78.6887C78.9622 21.1508 79.0753 21.016 79.0753 20.7697V18.9942L78.9041 18.9798C78.16 18.9172 77.3989 18.8531 76.6379 18.7691V18.7688H76.6355ZM86.0369 19.4747L86.0368 19.4747C85.3196 19.4331 84.599 19.3913 83.8612 19.3307V20.7669C83.8376 20.7901 83.8376 20.8343 83.8612 20.8575C83.8848 21.0388 84.0451 21.1735 84.2266 21.1503H86.004C86.1855 21.1062 86.301 20.9481 86.2775 20.7692V19.4887L86.0369 19.4747ZM92.8421 19.8024L92.8428 19.8024C92.7514 19.9361 92.6599 20.0472 92.5474 20.1812L92.5239 20.2044C91.8402 20.9016 94.0043 22.3842 94.438 21.9799C95.0085 21.3292 95.5554 20.6552 96.0787 19.9581L96.1235 19.9139C95.1786 19.8955 94.2152 19.8571 93.2336 19.8179L92.8428 19.8024L92.8445 19.8L92.8421 19.8024ZM109.457 21.0385C109.481 20.9479 109.481 20.8363 109.412 20.7457L108.979 19.9602C108.066 20.0044 107.109 20.0044 106.152 20.0044L106.654 20.9246C106.723 21.0594 106.881 21.15 107.041 21.15H109.207C109.344 21.15 109.434 21.1059 109.457 21.0385ZM110.826 19.9376C115.499 19.8261 119.739 19.5774 123.568 19.2405C123.568 19.2521 123.562 19.2631 123.556 19.2742C123.55 19.2852 123.544 19.2963 123.544 19.3079C123.407 19.7122 123.179 20.0724 122.861 20.3629C122.495 20.6557 122.064 20.8579 121.606 20.9462C120.968 21.081 120.329 21.1484 119.669 21.1484H113.264V24.4971C113.287 24.6761 113.172 24.8341 112.99 24.8573C112.946 24.8806 112.922 24.8806 112.898 24.8573H111.211C110.961 24.8573 110.824 24.7458 110.824 24.4971V19.9353L110.826 19.9376ZM138.226 17.7367V17.3323C137.45 17.4903 136.63 17.6251 135.786 17.7599L135.717 18.1643C135.67 18.3665 135.581 18.5686 135.42 18.7267C135.26 18.8824 135.055 18.9962 134.85 19.0404C134.553 19.1078 134.235 19.131 133.938 19.131H127.761V18.8382C126.965 18.9265 126.144 19.0171 125.3 19.0845V24.4992C125.3 24.7479 125.437 24.8594 125.711 24.8594H127.375C127.422 24.8827 127.443 24.8827 127.467 24.8594C127.651 24.8362 127.787 24.6782 127.764 24.4992V21.1505H134.169C134.807 21.1505 135.468 21.0831 136.106 20.9483C136.561 20.86 136.995 20.6578 137.337 20.365C137.655 20.0745 137.907 19.7143 138.021 19.31C138.181 18.7917 138.249 18.2758 138.226 17.7367Z" fill="url(#paint1_linear_13_33713)"/>
<defs>
<linearGradient id="paint0_linear_13_33713" x1="74.4141" y1="25.7424" x2="63.4141" y2="-14.7576" gradientUnits="userSpaceOnUse">
<stop stop-color="#B0CBFF"/>
<stop offset="1" stop-color="#6097FF"/>
</linearGradient>
<linearGradient id="paint1_linear_13_33713" x1="65.3727" y1="3.12574" x2="63.6703" y2="41.9412" gradientUnits="userSpaceOnUse">
<stop stop-color="#88B1FF"/>
<stop offset="1" stop-color="#4871BF"/>
</linearGradient>
</defs>
</svg>
