<svg width="16" height="18" viewBox="0 0 16 18" fill="none" xmlns="http://www.w3.org/2000/svg">
<g id="Group 1707478423">
<path id="Vector" d="M3.82674 17.5523H1.81053C1.08806 17.5523 0.5 16.9676 0.5 16.2418V2.02999C0.5 1.1563 1.20904 0.447266 2.08272 0.447266H10.5205C10.8297 0.447266 11.1254 0.5716 11.3438 0.790022L14.1631 3.60935C14.3211 3.76729 14.2102 4.03947 13.9851 4.03947H11.9319C11.9319 4.03947 11.0145 3.98234 11.2564 2.98769" stroke="#6097FF" stroke-width="0.86" stroke-linecap="round" stroke-linejoin="round"/>
<path id="Vector_2" d="M10.4003 17.5525H13.1534C13.8759 17.5525 14.464 16.6889 14.464 15.6237L14.4639 12.4614" stroke="#6097FF" stroke-width="0.86" stroke-linecap="round" stroke-linejoin="round"/>
<path id="Vector_3" d="M10.96 13.5492L8.65017 16.5198L6.53687 14.8788L13.1661 6.34659C13.521 5.8879 14.1817 5.80599 14.6405 6.16093L15.0937 6.51314C15.5524 6.86808 15.6343 7.52882 15.2794 7.98751L12.4481 11.6298" stroke="#6097FF" stroke-width="0.86" stroke-linecap="round" stroke-linejoin="round"/>
<path id="Vector_4" d="M7.6073 15.6851L6.55066 14.8633L6.60527 16.8728C6.60527 16.9247 6.64895 16.9602 6.70083 16.9466L8.6612 16.5042L7.60456 15.6824L7.6073 15.6851Z" stroke="#6097FF" stroke-width="0.86" stroke-linecap="round" stroke-linejoin="round"/>
<path id="Vector_5" d="M12.5985 7.22778L14.6381 8.81411" stroke="#6097FF" stroke-width="0.86" stroke-linecap="round" stroke-linejoin="round"/>
</g>
</svg>
