<svg width="36" height="37" viewBox="0 0 36 37" fill="none" xmlns="http://www.w3.org/2000/svg">
<path d="M24.3406 15.559V12.2065H22.313H17.2382H12.9065H10.9883" stroke="white" stroke-width="0.8" stroke-linecap="round" stroke-linejoin="round"/>
<path d="M9.18544 12.2065H6V22.9552C6 24.0093 6.85828 24.8676 7.91242 24.8676H15.3489" stroke="white" stroke-width="0.8" stroke-linecap="round" stroke-linejoin="round"/>
<path d="M6 12.2062L9.95156 7.27543C10.3375 6.79733 10.9193 6.51508 11.5356 6.51508H19.0355C19.6634 6.51508 20.2567 6.80885 20.6369 7.31L24.3465 12.2062" stroke="white" stroke-width="0.8" stroke-linecap="round" stroke-linejoin="round"/>
<path d="M12.8711 12.4887V17.9389C12.8711 18.5899 13.4011 19.12 14.0522 19.12H16.1147C16.76 19.12 17.2843 18.5957 17.2843 17.9504V16.9076" stroke="white" stroke-width="0.8" stroke-linecap="round" stroke-linejoin="round"/>
<path d="M17.2799 14.8503V12.8918C17.2799 12.3331 17.2108 11.7801 17.0668 11.2444L15.8398 6.52094" stroke="white" stroke-width="0.8" stroke-linecap="round" stroke-linejoin="round"/>
<path d="M12.8711 15.4262V12.8053C12.8711 12.3042 12.9345 11.8088 13.0612 11.3192L14.3112 6.51508" stroke="white" stroke-width="0.8" stroke-linecap="round" stroke-linejoin="round"/>
<path d="M16.7422 24.8676H15.4805" stroke="white" stroke-width="0.8" stroke-linecap="round" stroke-linejoin="round"/>
<path d="M23.3262 21.0883H29.2661" stroke="white" stroke-width="0.8" stroke-linecap="round" stroke-linejoin="round"/>
<path d="M23.3281 26.0014H29.268" stroke="white" stroke-width="0.8" stroke-linecap="round" stroke-linejoin="round"/>
<path d="M23.3281 30.9155H29.268" stroke="white" stroke-width="0.8" stroke-linecap="round" stroke-linejoin="round"/>
<path d="M19.3848 20.9328L19.8284 21.3822L20.8942 20.0571" stroke="white" stroke-width="0.8" stroke-linecap="round" stroke-linejoin="round"/>
<path d="M19.3848 25.9278L19.8284 26.3772L20.8942 25.0521" stroke="white" stroke-width="0.8" stroke-linecap="round" stroke-linejoin="round"/>
<path d="M19.3848 30.9163L19.8284 31.3657L20.8942 30.0463" stroke="white" stroke-width="0.8" stroke-linecap="round" stroke-linejoin="round"/>
</svg>
