<svg width="36" height="37" viewBox="0 0 36 37" fill="none" xmlns="http://www.w3.org/2000/svg">
<path d="M28.3736 13.5969C28.3736 13.5969 26.7659 14.6671 24.8894 14.5327C23.0128 14.3984 21.6066 13.7793 21.6066 13.7793C21.6066 13.7793 20.8291 13.3281 19.2454 13.2705C17.1385 13.1937 16.289 14.1296 16.289 14.1296L14.3405 16.1693C14.2349 16.2797 14.2493 16.4525 14.3693 16.5437C14.5901 16.7116 15.7659 17.0092 16.3562 16.582C17.8104 15.5262 18.1367 15.339 18.1367 15.339C18.1367 15.339 19.1494 14.6671 20.1045 15.3726C20.9635 16.0061 25.4125 19.7928 25.4125 19.7928C25.4125 19.7928 26.0412 20.3351 25.5757 20.9734C25.1581 21.5397 24.4094 21.5445 24.0783 21.3765C23.7471 21.2086 22.053 19.4184 22.053 19.4184" stroke="white" stroke-width="0.7" stroke-linecap="round" stroke-linejoin="round"/>
<path d="M24.001 21.3333C24.001 21.3333 24.169 21.9428 23.8858 22.2212C23.6747 22.4275 23.6459 22.4611 23.2331 22.6723C23.022 22.7779 22.5276 22.7539 22.3117 22.5907C22.0957 22.4275 20.8047 21.0453 20.8047 21.0453" stroke="white" stroke-width="0.7" stroke-linecap="round" stroke-linejoin="round"/>
<path d="M22.3068 22.59C22.3068 22.59 22.4316 23.0027 22.1772 23.2811C21.9229 23.5594 21.6013 23.6746 21.6013 23.6746C21.6013 23.6746 21.0926 23.8906 20.6894 23.4826C20.2863 23.0747 19.5664 22.2924 19.5664 22.2924" stroke="white" stroke-width="0.7" stroke-linecap="round" stroke-linejoin="round"/>
<path d="M20.8299 23.6801C20.8299 23.6801 20.1964 24.6688 18.5215 23.6801" stroke="white" stroke-width="0.7" stroke-linecap="round" stroke-linejoin="round"/>
<path d="M9.2207 13.519L11.1644 14.2101C11.1644 14.2101 12.3786 14.8532 13.7176 14.7188C15.0566 14.5844 15.0231 14.1045 16.1605 14.2629" stroke="white" stroke-width="0.7" stroke-linecap="round" stroke-linejoin="round"/>
<path d="M6.25977 17.853C6.25977 17.853 9.50889 18.4385 11.755 19.7967" stroke="white" stroke-width="0.7" stroke-linecap="round" stroke-linejoin="round"/>
<path d="M13.2417 21.2942C13.1025 21.3662 12.9393 21.4094 12.7714 21.4094C12.2098 21.4094 11.7539 20.9534 11.7539 20.3919C11.7539 19.8304 12.2098 19.3745 12.7714 19.3745C13.2033 19.3745 13.568 19.6432 13.7168 20.0176" stroke="white" stroke-width="0.7" stroke-linecap="round" stroke-linejoin="round"/>
<path d="M17.2251 21.8464C17.3259 21.8176 17.4315 21.8032 17.5419 21.8032C18.1754 21.8032 18.6889 22.3167 18.6889 22.9454C18.6889 23.5741 18.1754 24.0876 17.5419 24.0876C16.9756 24.0876 16.5052 23.6749 16.4141 23.1326" stroke="white" stroke-width="0.7" stroke-linecap="round" stroke-linejoin="round"/>
<path d="M13.2422 21.2944C13.2422 21.8655 13.4342 22.355 13.8805 22.4846C14.202 22.5758 14.4324 22.5998 14.9075 22.2254" stroke="white" stroke-width="0.7" stroke-linecap="round" stroke-linejoin="round"/>
<path d="M13.7168 20.0221C14.0192 19.6861 14.5663 19.5806 14.9406 19.6909C15.3534 19.8109 15.6221 20.2189 15.5165 20.6748" stroke="white" stroke-width="0.7" stroke-linecap="round" stroke-linejoin="round"/>
<path d="M14.9111 22.225C14.7719 22.633 15.0119 23.1225 15.3862 23.2665C15.6694 23.3769 16.1973 23.4105 16.4181 23.1321" stroke="white" stroke-width="0.7" stroke-linecap="round" stroke-linejoin="round"/>
<path d="M15.5156 20.6756C15.89 20.2197 16.3747 20.2053 16.7346 20.3733C17.2674 20.6228 17.4881 21.1988 17.229 21.8467" stroke="white" stroke-width="0.7" stroke-linecap="round" stroke-linejoin="round"/>
<path d="M18.6893 27.1302C25.6975 27.1302 31.3787 23.4108 31.3787 18.8227C31.3787 14.2345 25.6975 10.5151 18.6893 10.5151C11.6812 10.5151 6 14.2345 6 18.8227C6 23.4108 11.6812 27.1302 18.6893 27.1302Z" stroke="white" stroke-width="0.7" stroke-linecap="round" stroke-linejoin="round"/>
<path d="M31.3028 17.9251C31.3028 17.9251 27.9817 18.5922 25.4141 19.7968" stroke="white" stroke-width="0.7" stroke-linecap="round" stroke-linejoin="round"/>
</svg>
